<?xml version="1.0" encoding="utf-8"?>
<!-- Generator: Adobe Illustrator 16.0.0, SVG Export Plug-In . SVG Version: 6.00 Build 0)  -->
<!DOCTYPE svg PUBLIC "-//W3C//DTD SVG 1.1//EN" "http://www.w3.org/Graphics/SVG/1.1/DTD/svg11.dtd" [
	<!ENTITY ns_extend "http://ns.adobe.com/Extensibility/1.0/">
	<!ENTITY ns_ai "http://ns.adobe.com/AdobeIllustrator/10.0/">
	<!ENTITY ns_graphs "http://ns.adobe.com/Graphs/1.0/">
	<!ENTITY ns_vars "http://ns.adobe.com/Variables/1.0/">
	<!ENTITY ns_imrep "http://ns.adobe.com/ImageReplacement/1.0/">
	<!ENTITY ns_sfw "http://ns.adobe.com/SaveForWeb/1.0/">
	<!ENTITY ns_custom "http://ns.adobe.com/GenericCustomNamespace/1.0/">
	<!ENTITY ns_adobe_xpath "http://ns.adobe.com/XPath/1.0/">
]>
<svg version="1.1" id="Layer_1" xmlns:x="&ns_extend;" xmlns:i="&ns_ai;" xmlns:graph="&ns_graphs;"
	 xmlns="http://www.w3.org/2000/svg" xmlns:xlink="http://www.w3.org/1999/xlink" x="0px" y="0px" width="512px" height="512px"
	 viewBox="0 0 512 512" enable-background="new 0 0 512 512" xml:space="preserve">
<metadata>
	<sfw  xmlns="&ns_sfw;">
		<slices></slices>
		<sliceSourceBounds  height="450" width="512" bottomLeftOrigin="true" y="-143.5" x="452.5"></sliceSourceBounds>
	</sfw>
</metadata>
<g>
	<path fill="#FFFFFF" d="M512,270h-31.504c-3.563-54.453-26.457-105.156-65.398-144.098C382.41,93.215,341.434,71.84,296.91,63.703
		C299.527,58.004,301,51.672,301,45c0-24.813-20.188-45-45-45s-45,20.188-45,45c0,6.672,1.473,13.004,4.086,18.703
		c-44.52,8.137-85.496,29.512-118.188,62.199C57.961,164.844,35.063,215.547,31.504,270H0v30h36.73l30,60h138.457l-20,60H151v30h210
		v-30h-34.188l-20-60H445.27l30-60H512V270z M241,45c0-8.27,6.73-15,15-15s15,6.73,15,15s-6.73,15-15,15S241,53.27,241,45z M256,90
		c102.477,0,186.742,79.457,194.43,180H61.57C69.258,169.457,153.523,90,256,90z M295.188,420h-78.375l20-60h38.375L295.188,420z
		 M426.73,330H85.27l-15-30H441.73L426.73,330z"/>
</g>
</svg>
