<svg version="1.1" id="Capa_1" xmlns="http://www.w3.org/2000/svg" xmlns:xlink="http://www.w3.org/1999/xlink" x="0px" y="0px" width="100px" height="22.531px" viewBox="658.66 38.735 100 22.531" enable-background="new 658.66 38.735 100 22.531" xml:space="preserve">
<g>
	<path d="M697.395,50c0-6.225,5.041-11.265,11.266-11.265S719.926,43.775,719.926,50s-5.041,11.266-11.266,11.266
		S697.395,56.225,697.395,50z M747.395,38.735c-6.225,0-11.265,5.041-11.265,11.265s5.04,11.266,11.265,11.266
		S758.66,56.225,758.66,50S753.619,38.735,747.395,38.735z M669.926,38.735c-6.225,0-11.266,5.041-11.266,11.265
		s5.041,11.266,11.266,11.266S681.19,56.225,681.19,50S676.15,38.735,669.926,38.735z"/>
</g>
</svg>
