
<svg version="1.1"  xmlns="http://www.w3.org/2000/svg" xmlns:xlink="http://www.w3.org/1999/xlink" x="0px" y="0px" width="1432px" height="76.341px"
	 viewBox="0 0 1432 76.341" preserveAspectRatio="none">
<path class="bottom-path" d="M1432,76V2.534c-14-0.715-28.895-1.32-44.627-1.77c-38.299-1.084-81.506-1.156-128.642,0.693
	c-11.783,0.465-23.813,1.045-36.072,1.748c-12.26,0.709-24.75,1.564-37.454,2.508c-25.409,1.943-51.677,4.381-78.683,7.338
	c-27.004,2.933-54.744,6.378-83.1,10.126S966.1,31.019,936.64,35.089c-58.919,8.19-119.803,16.563-181.668,22.836
	c-61.865,6.327-124.713,10.619-187.56,12.275c-31.424,0.808-62.847,1.13-94.149,0.547c-31.3-0.573-62.478-1.987-93.41-4.212
	c-30.934-2.207-61.62-5.193-91.938-8.761c-15.16-1.792-30.228-3.69-45.188-5.739c-7.479-1.015-14.933-2.008-22.357-3.082
	c-7.425-1.058-14.82-2.088-22.185-3.184C139.266,37.168,82.311,28.002,28.301,21.453C18.771,20.279,9,19.19,0,18.178V76H1432z"/>
</svg>
