<svg version="1.1" id="Layer_1" xmlns:x="&ns_extend;" xmlns:i="&ns_ai;" xmlns:graph="&ns_graphs;"
	 xmlns="http://www.w3.org/2000/svg" xmlns:xlink="http://www.w3.org/1999/xlink" x="0px" y="0px" width="1432px" height="76.341px"
	 viewBox="0 0 1432 76.341" enable-background="new 0 0 1432 76.341" preserveAspectRatio="none">
<path fill="#FFFFFF" d="M0,0v73.807c14.007,0.714,28.895,1.32,44.627,1.769c38.298,1.084,81.505,1.157,128.641-0.693
	c11.783-0.464,23.813-1.045,36.072-1.747c12.26-0.709,24.75-1.564,37.454-2.508c25.409-1.944,51.677-4.381,78.682-7.338
	c27.005-2.934,54.745-6.379,83.1-10.127c28.356-3.748,57.324-7.841,86.783-11.911c58.919-8.19,119.803-16.563,181.668-22.836
	C738.893,12.088,801.74,7.796,864.587,6.14c31.424-0.808,62.847-1.13,94.149-0.547c31.3,0.573,62.478,1.987,93.41,4.212
	c30.934,2.207,61.62,5.193,91.938,8.761c15.16,1.792,30.228,3.69,45.188,5.739c7.479,1.015,14.933,2.008,22.357,3.082
	c7.425,1.058,14.82,2.088,22.185,3.184c58.919,8.602,115.874,17.768,169.885,24.316c9.529,1.174,18.961,2.263,28.301,3.275V0H0z"/>
</svg>
